<svg version="1.1" id="Layer_1" xmlns="http://www.w3.org/2000/svg" xmlns:xlink="http://www.w3.org/1999/xlink" x="0px" y="0px" width="100%" viewBox="0 0 400 400" enable-background="new 0 0 400 400" xml:space="preserve">
	<rect width="100%" height="100%" fill="#f4e9d5" rx="24%" ry="24%"/>
    <path fill="#311e15" opacity="1.000000" stroke="none"
          d="
M274.204590,308.304626
	C270.443115,308.004761 267.701111,308.660187 265.355133,311.471069
	C259.150513,318.905334 251.978699,325.349274 244.076675,330.967346
	C243.584305,331.317444 243.218292,331.845306 242.135300,332.980164
	C253.909073,332.980164 264.846222,332.877869 275.780334,333.016052
	C283.097412,333.108490 290.431427,332.375275 297.737793,333.515472
	C300.419128,333.933868 302.639069,334.738464 303.299683,337.634705
	C303.986237,340.644623 301.954987,342.365143 299.819092,343.685242
	C290.766602,349.280396 280.611053,351.831573 270.397308,354.323120
	C247.236053,359.973175 223.680115,357.781677 200.262497,358.000671
	C183.440170,358.158020 166.589233,358.043610 149.791382,357.223938
	C133.917465,356.449341 118.502220,352.880280 104.167107,345.724182
	C100.802719,344.044708 95.864723,342.420837 97.200348,337.326599
	C98.483627,332.432068 103.329918,333.012207 107.305351,333.004486
	C121.971138,332.976074 136.637039,333.012573 151.302902,333.024261
	C152.946609,333.025574 154.590332,333.024414 156.053925,333.024414
	C156.692032,331.501587 155.806824,331.078522 155.181381,330.641998
	C128.276672,311.867035 115.030830,284.850983 108.599297,253.673492
	C106.676582,244.352936 105.938705,234.923370 105.693573,225.454056
	C105.503212,218.100327 106.705444,216.999374 113.969200,216.987808
	C139.134430,216.947723 164.299713,216.939896 189.464981,216.920303
	C191.901138,216.918411 194.337311,216.920059 197.743896,216.920059
	C183.210068,210.178864 178.224335,202.275131 180.793488,191.144653
	C182.831955,182.313370 191.070969,176.412781 200.978378,176.688690
	C210.357544,176.949890 217.818451,183.423294 219.390320,193.102905
	C220.952393,202.722214 217.178619,211.926987 203.173553,216.908646
	C205.720917,216.908646 208.268280,216.909164 210.815643,216.908585
	C235.314285,216.902908 259.812927,216.888565 284.311584,216.896561
	C291.448395,216.898880 292.826324,218.015427 293.122986,225.191116
	C293.266968,228.673416 294.488251,229.926712 297.902618,229.748184
	C304.586731,229.398666 311.214569,229.858673 317.564606,232.237381
	C338.148590,239.948059 340.461700,260.818909 332.854492,276.239441
	C324.517120,293.140137 309.538666,302.197784 291.446075,306.238800
	C285.937622,307.469147 280.370972,308.575897 274.204590,308.304626
M279.991425,289.522644
	C282.890045,290.208893 285.659088,289.238312 288.310669,288.476196
	C301.940460,284.558655 313.664551,278.269562 317.818451,263.228943
	C319.760864,256.195892 317.399567,251.613403 310.480652,249.398438
	C305.548553,247.819504 300.367493,247.737625 295.245636,247.329468
	C292.091553,247.078125 290.499756,248.017654 289.880402,251.476349
	C288.654816,258.320435 286.660736,265.023895 285.323364,271.851898
	C284.136810,277.910004 280.798553,283.187317 279.991425,289.522644
M154.409409,304.955383
	C155.705490,305.878448 156.820831,307.194702 158.886124,306.969574
	C157.781479,302.942017 154.750137,300.103546 153.168137,296.491699
	C145.252808,278.420380 139.702362,259.733063 138.790024,239.907578
	C138.635056,236.539932 137.657211,234.917068 134.185928,235.173676
	C132.862930,235.271469 131.512833,235.310226 130.198730,235.163712
	C126.103073,234.707092 124.725792,236.683640 125.372551,240.450821
	C126.324982,245.998459 126.994164,251.626343 128.409256,257.057129
	C133.059448,274.903351 139.113403,292.072571 154.409409,304.955383
z"/>
    <path fill="#311e15" opacity="1.000000" stroke="none"
          d="
M170.871078,70.826691
	C170.394287,67.099281 169.969193,63.811012 169.581116,60.518379
	C167.975586,46.896366 175.491989,36.981972 189.288757,34.906162
	C197.529434,33.666302 205.840637,33.461983 214.003281,35.545040
	C226.434021,38.717297 232.664658,48.869942 230.614319,61.584438
	C226.443420,87.448914 222.359055,113.329178 218.554443,139.249237
	C217.834641,144.153091 217.591599,149.121735 216.499023,154.006241
	C214.618790,162.412216 207.657516,168.478714 199.735825,168.276245
	C191.281021,168.060150 184.991623,161.895935 183.604019,152.836319
	C179.438110,125.636993 175.168793,98.453506 170.871078,70.826691
z"/>
</svg>
